<svg xmlns="http://www.w3.org/2000/svg" fill="none" viewBox="0 0 128 128" height="128" width="128">
<path fill="#0000FE" d="M63.9989 0C28.6528 0 0 28.6523 0 64C0 99.3477 28.6528 128 63.9989 128C99.345 128 128 99.3455 128 64C128 28.6545 99.345 0 63.9989 0ZM63.9989 116.198C35.2157 116.198 11.8001 92.7827 11.8001 64C11.8001 35.2173 35.2157 11.8021 63.9989 11.8021C92.7821 11.8021 116.198 35.2173 116.198 64C116.198 92.7827 92.7821 116.198 63.9989 116.198Z"></path>
<path fill="#0000FE" d="M89.0806 53.7682C87.7632 50.7473 85.9159 48.1169 83.5408 45.8751C81.1657 43.6332 78.3904 41.91 75.215 40.7077C72.0395 39.5032 68.5699 38.902 64.8082 38.902H63.6855V50.9231H66.5279C69.0522 50.9231 71.2673 51.4352 73.1708 52.4618C75.0744 53.4883 76.5583 54.9749 77.6204 56.926C78.6825 58.877 79.2146 61.1775 79.2146 63.8317C79.2146 66.4859 78.6933 68.8493 77.6507 70.7982C76.608 72.7492 75.1349 74.2467 73.2314 75.2928C71.3279 76.3388 69.0933 76.8619 66.5279 76.8619H63.6855V88.8829H64.9488C68.665 88.8829 72.1109 88.2709 75.2864 87.0425C78.4618 85.8163 81.2241 84.0801 83.5776 81.8383C85.9289 79.5964 87.7632 76.953 89.0806 73.9103C90.3979 70.8655 91.0555 67.5276 91.0555 63.8925C91.0555 60.2573 90.3958 56.7892 89.0806 53.7682Z"></path>
<path fill="#0000FE" d="M56.7493 76.8597H44.7676V88.8807H56.7493V76.8597Z"></path>
<path fill="#0000FE" d="M56.7493 57.8809H44.7676V69.9019H56.7493V57.8809Z"></path>
<path fill="#0000FE" d="M63.9934 38.8998H44.7676V50.9209H63.9934V38.8998Z"></path>
</svg>
